<?xml version="1.0" standalone="no"?>
<!DOCTYPE svg PUBLIC "-//W3C//DTD SVG 20010904//EN"
 "http://www.w3.org/TR/2001/REC-SVG-20010904/DTD/svg10.dtd">
<svg version="1.0" xmlns="http://www.w3.org/2000/svg"
 width="500.000000pt" height="500.000000pt" viewBox="0 0 500.000000 500.000000"
 preserveAspectRatio="xMidYMid meet">

<g transform="translate(0.000000,500.000000) scale(0.100000,-0.100000)"
fill="#000000" stroke="none">
<path d="M1670 3602 c0 -752 4 -1285 10 -1342 26 -249 114 -440 285 -619 90
-94 168 -153 270 -205 169 -86 319 -116 575 -116 l165 1 -67 22 c-124 42 -224
128 -286 245 -65 121 -62 62 -62 1307 0 740 -4 1152 -11 1195 -66 411 -395
715 -816 754 l-63 6 0 -1248z"/>
<path d="M2978 2281 c-83 -27 -139 -63 -196 -126 -161 -176 -159 -428 3 -603
94 -101 211 -148 349 -139 45 2 101 13 126 22 179 70 291 234 289 424 0 77
-27 190 -43 181 -5 -3 -100 -97 -210 -210 -111 -113 -203 -206 -206 -208 -3
-1 -62 55 -132 125 l-127 128 55 58 c31 31 58 57 61 57 3 0 35 -29 72 -65 l67
-64 163 163 162 162 -38 27 c-21 14 -65 38 -97 53 -80 36 -214 43 -298 15z"/>
<path d="M910 570 l0 -380 215 0 215 0 0 45 0 45 -170 0 -170 0 0 335 0 335
-45 0 -45 0 0 -380z"/>
<path d="M1462 908 c-7 -7 -12 -21 -12 -33 0 -29 19 -45 52 -45 25 0 48 23 48
49 0 33 -63 54 -88 29z"/>
<path d="M2210 815 l0 -85 -45 0 -45 0 0 -45 0 -45 45 0 45 0 0 -225 0 -225
45 0 45 0 0 225 0 224 63 3 62 3 3 42 3 42 -63 3 -63 3 -3 83 -3 82 -44 0 -45
0 0 -85z"/>
<path d="M3840 815 l0 -85 -45 0 -45 0 0 -45 0 -45 45 0 45 0 0 -225 0 -225
45 0 45 0 0 225 0 224 63 3 62 3 3 42 3 42 -63 3 -63 3 -3 83 -3 82 -44 0 -45
0 0 -85z"/>
<path d="M1755 731 c-50 -23 -92 -71 -101 -115 -16 -91 40 -147 191 -191 111
-32 136 -55 116 -108 -27 -71 -163 -75 -230 -8 -20 20 -22 20 -56 4 -19 -9
-35 -19 -35 -23 0 -12 65 -68 99 -85 132 -67 311 12 311 137 0 73 -57 120
-200 167 -91 30 -110 45 -110 85 0 44 28 68 89 74 63 6 91 -1 125 -32 26 -25
27 -25 61 -9 19 9 35 19 35 23 0 14 -68 70 -102 84 -51 22 -143 20 -193 -3z"/>
<path d="M2672 735 c-63 -19 -108 -53 -147 -110 -127 -183 7 -445 228 -445 72
0 113 17 155 64 l32 37 0 -46 0 -45 45 0 45 0 0 270 0 270 -40 0 -40 0 0 -41
0 -41 -46 41 c-69 60 -141 75 -232 46z m186 -104 c94 -67 105 -237 20 -318
-87 -83 -232 -53 -289 59 -30 58 -24 150 13 205 54 82 181 108 256 54z"/>
<path d="M3302 735 c-63 -19 -108 -53 -147 -110 -127 -183 7 -445 228 -445 72
0 113 17 155 64 l32 37 0 -46 0 -45 45 0 45 0 0 270 0 270 -40 0 -40 0 0 -41
0 -41 -46 41 c-69 60 -141 75 -232 46z m186 -104 c94 -67 105 -237 20 -318
-87 -83 -232 -53 -289 59 -30 58 -24 150 13 205 54 82 181 108 256 54z"/>
<path d="M1460 460 l0 -270 45 0 45 0 0 270 0 270 -45 0 -45 0 0 -270z"/>
</g>
</svg>
