<?xml version="1.0" standalone="no"?>
<!DOCTYPE svg PUBLIC "-//W3C//DTD SVG 20010904//EN"
 "http://www.w3.org/TR/2001/REC-SVG-20010904/DTD/svg10.dtd">
<svg version="1.0" xmlns="http://www.w3.org/2000/svg"
 width="100.000000pt" height="34.000000pt" viewBox="0 0 100.000000 34.000000"
 preserveAspectRatio="xMidYMid meet">

<g transform="translate(0.000000,34.000000) scale(0.100000,-0.100000)"
fill="#000000" stroke="none">
<path d="M40 160 l0 -110 65 0 c37 0 65 4 65 10 0 6 -22 10 -50 10 l-50 0 0
100 c0 82 -3 100 -15 100 -12 0 -15 -19 -15 -110z"/>
<path d="M200 250 c0 -5 7 -10 15 -10 8 0 15 5 15 10 0 6 -7 10 -15 10 -8 0
-15 -4 -15 -10z"/>
<path d="M430 235 c0 -16 -6 -25 -15 -25 -8 0 -15 -7 -15 -15 0 -8 7 -15 15
-15 12 0 15 -14 15 -65 0 -37 4 -65 10 -65 6 0 10 28 10 64 0 56 2 64 21 69
23 6 17 27 -7 27 -8 0 -14 10 -14 25 0 14 -4 25 -10 25 -5 0 -10 -11 -10 -25z"/>
<path d="M910 235 c0 -16 -6 -25 -15 -25 -8 0 -15 -7 -15 -15 0 -8 7 -15 15
-15 12 0 15 -14 15 -65 0 -37 4 -65 10 -65 6 0 10 28 10 64 0 56 2 64 21 69
23 6 17 27 -7 27 -8 0 -14 10 -14 25 0 14 -4 25 -10 25 -5 0 -10 -11 -10 -25z"/>
<path d="M206 203 c-3 -3 -6 -39 -6 -80 0 -58 3 -73 15 -73 12 0 15 15 15 74
0 69 -8 95 -24 79z"/>
<path d="M275 194 c-25 -25 -14 -47 33 -69 27 -12 41 -25 40 -35 -4 -18 -44
-26 -62 -11 -17 14 -29 2 -15 -16 17 -20 73 -16 93 6 23 26 7 57 -33 66 -64
14 -61 63 3 51 36 -7 51 6 20 18 -28 11 -62 6 -79 -10z"/>
<path d="M532 190 c-12 -11 -24 -31 -28 -44 -7 -28 18 -81 41 -90 26 -10 73
-7 81 5 4 8 9 7 15 -2 13 -22 17 -8 19 66 2 91 2 89 -13 77 -8 -7 -18 -7 -27
-2 -25 16 -65 11 -88 -10z m88 -20 c53 -53 -16 -134 -72 -83 -25 23 -23 68 4
87 30 21 44 20 68 -4z"/>
<path d="M715 185 c-49 -48 -17 -135 49 -135 17 0 38 6 45 12 11 10 14 10 18
1 13 -35 23 -5 23 67 0 72 -10 102 -23 68 -4 -10 -7 -10 -18 0 -22 20 -68 14
-94 -13z m87 -12 c20 -18 24 -73 6 -91 -30 -30 -98 4 -98 48 0 24 34 60 57 60
9 0 25 -7 35 -17z"/>
</g>
</svg>
