<?xml version="1.0" standalone="no"?>
<!DOCTYPE svg PUBLIC "-//W3C//DTD SVG 20010904//EN"
 "http://www.w3.org/TR/2001/REC-SVG-20010904/DTD/svg10.dtd">
<svg version="1.0" xmlns="http://www.w3.org/2000/svg"
 width="32.000000pt" height="32.000000pt" viewBox="0 0 32.000000 32.000000"
 preserveAspectRatio="xMidYMid meet">

<g transform="translate(0.000000,32.000000) scale(0.100000,-0.100000)"
fill="#000000" stroke="none">
<path d="M80 190 c0 -115 1 -122 25 -145 27 -28 58 -34 49 -10 -4 8 -7 65 -8
126 -1 103 -3 112 -25 130 -13 10 -27 19 -32 19 -5 0 -9 -54 -9 -120z"/>
<path d="M171 76 c-6 -7 -8 -21 -5 -30 9 -24 58 -17 62 9 4 20 3 20 -11 1 -9
-12 -20 -17 -31 -13 -24 9 -20 22 12 34 23 9 24 11 6 12 -12 1 -27 -5 -33 -13z"/>
</g>
</svg>
